<?xml version="1.0" encoding="UTF-8"?>
<svg version="1.1" xmlns="http://www.w3.org/2000/svg" width="634" height="207">
<path d="M0 0 C0 0.99 0 1.98 0 3 C0.63915742 7.72213315 3.6361825 9.97035549 6.99609375 13.08984375 C11.28728673 17.18027916 13.23222624 21.45072758 15 27 C15.50225098 26.72325439 16.00450195 26.44650879 16.52197266 26.16137695 C43.26026629 11.51839759 43.26026629 11.51839759 54 12 C55.19334591 15.58003773 55.33543224 18.24315896 55 22 C51.64637866 25.35362134 47.020723 26.78468787 42.6875 28.5 C41.21205353 29.09328752 39.73679103 29.68703277 38.26171875 30.28125 C37.55063965 30.56613281 36.83956055 30.85101563 36.10693359 31.14453125 C33.05150718 32.38511226 30.02579266 33.68895642 27 35 C26.6581849 39.57177693 26.41789341 44.10989298 26.5078125 48.6953125 C26.52545654 49.82090576 26.52545654 49.82090576 26.54345703 50.96923828 C27.13991471 53.6223586 28.21412328 54.47528915 30.375 56.0625 C31.10074219 56.35640625 31.82648438 56.6503125 32.57421875 56.953125 C40.162139 60.22778302 46.4817684 67.64511147 50 75 C52.7490775 82.17546269 53.50907247 88.98830166 53.6875 96.625 C53.72166016 97.62917969 53.75582031 98.63335937 53.79101562 99.66796875 C53.87247891 102.11186718 53.94194922 104.55545281 54 107 C55.04800781 106.98839844 56.09601563 106.97679688 57.17578125 106.96484375 C58.55468572 106.95546345 59.93359211 106.9463635 61.3125 106.9375 C62.00279297 106.92912109 62.69308594 106.92074219 63.40429688 106.91210938 C66.5483025 106.89692094 68.99420019 106.99806673 72 108 C72.6875 111.3125 72.6875 111.3125 73 115 C71.51289123 117.07049708 70.62694705 117.88768574 68.09887695 118.34057617 C67.40238037 118.32486572 66.70588379 118.30915527 65.98828125 118.29296875 C65.23095703 118.28330078 64.47363281 118.27363281 63.69335938 118.26367188 C62.90767578 118.23853516 62.12199219 118.21339844 61.3125 118.1875 C60.11657227 118.16719727 60.11657227 118.16719727 58.89648438 118.14648438 C56.93070033 118.11117089 54.96526418 118.05736447 53 118 C52.98582031 118.79921875 52.97164063 119.5984375 52.95703125 120.421875 C52.40676944 133.09276863 48.41025913 142.5649614 40 152 C39.42765625 152.68835938 38.8553125 153.37671875 38.265625 154.0859375 C28.87101231 164.56454397 14.81733278 169.30436065 1.0859375 170.27734375 C-15.87227527 170.88037486 -31.70172658 166.21421123 -44.4375 154.75 C-53.66735638 145.97651543 -59.36986743 136.11076355 -60.171875 123.2421875 C-60.18492501 121.16071065 -60.10394604 119.07892073 -60 117 C-60.66 117 -61.32 117 -62 117 C-61.99777939 117.6072139 -61.99555878 118.2144278 -61.99327087 118.84004211 C-61.97117688 125.15010999 -61.95607613 131.46016691 -61.94506836 137.77026367 C-61.94003425 140.126388 -61.93320654 142.4825092 -61.92456055 144.83862305 C-61.9124547 148.2218503 -61.90676251 151.60503632 -61.90234375 154.98828125 C-61.89718246 156.04461258 -61.89202118 157.10094391 -61.88670349 158.18928528 C-61.88662796 159.17007553 -61.88655243 160.15086578 -61.88647461 161.16137695 C-61.884254 162.02519485 -61.88203339 162.88901276 -61.87974548 163.77900696 C-62 166 -62 166 -63 169 C-66.28696233 169.79953138 -67.71023192 170.09658936 -71 169 C-71.96373665 166.10879006 -72.14009896 164.21806296 -72.17358398 161.20898438 C-72.18707382 160.2378772 -72.20056366 159.26677002 -72.21446228 158.26623535 C-72.22490067 157.21931519 -72.23533905 156.17239502 -72.24609375 155.09375 C-72.27902083 152.88411045 -72.31223266 150.67447513 -72.34570312 148.46484375 C-72.39320296 144.97545169 -72.4376562 141.48607816 -72.47680664 137.99658203 C-72.51642612 134.63295906 -72.56798343 131.26968315 -72.62109375 127.90625 C-72.6295079 126.85932983 -72.63792206 125.81240967 -72.64659119 124.73376465 C-72.66323318 123.76265747 -72.67987518 122.79155029 -72.69702148 121.79101562 C-72.70732895 120.93624634 -72.71763641 120.08147705 -72.72825623 119.20080566 C-72.86863012 116.71111846 -72.86863012 116.71111846 -75 114 C-74.625 110.8125 -74.625 110.8125 -74 108 C-70.85069107 106.95023036 -68.61185544 106.89868405 -65.3125 106.9375 C-64.31863281 106.94652344 -63.32476562 106.95554687 -62.30078125 106.96484375 C-61.54152344 106.97644531 -60.78226563 106.98804687 -60 107 C-60.01571045 106.35562988 -60.0314209 105.71125977 -60.04760742 105.04736328 C-60.11070901 102.07333471 -60.14922586 99.09944771 -60.1875 96.125 C-60.21263672 95.11179687 -60.23777344 94.09859375 -60.26367188 93.0546875 C-60.36458851 82.55935757 -58.43142731 73.71552614 -51 66 C-41.8538835 57.78058252 -41.8538835 57.78058252 -37.1796875 55.8125 C-34.84348167 54.25426777 -34.84348167 54.25426777 -34.60864258 52.08129883 C-34.50625461 49.63920405 -34.56478867 47.25351158 -34.6875 44.8125 C-34.72133789 43.5450293 -34.72133789 43.5450293 -34.75585938 42.25195312 C-34.81475037 40.16721202 -34.90443202 38.08338196 -35 36 C-35.52843506 35.75354736 -36.05687012 35.50709473 -36.60131836 35.25317383 C-39.04828677 34.10961841 -41.49288867 32.96108507 -43.9375 31.8125 C-44.76830078 31.42513672 -45.59910156 31.03777344 -46.45507812 30.63867188 C-52.10404643 27.97904088 -57.58151343 25.10201189 -63 22 C-62.125 14.25 -62.125 14.25 -61 12 C-46.48732585 12.72563371 -31.95673019 21.02884654 -20 29 C-19.855625 27.741875 -19.71125 26.48375 -19.5625 25.1875 C-17.96469622 17.73108234 -12.25122603 12.25122603 -7 7 C-6.835 5.989375 -6.67 4.97875 -6.5 3.9375 C-6.335 2.968125 -6.17 1.99875 -6 1 C-4 0 -4 0 0 0 Z " fill="#4A4A4A" transform="translate(87,14)"/>
<path d="M0 0 C0.969375 -0.00128906 1.93875 -0.00257812 2.9375 -0.00390625 C4.4534375 0.00189453 4.4534375 0.00189453 6 0.0078125 C7.010625 0.00394531 8.02125 0.00007813 9.0625 -0.00390625 C10.031875 -0.00261719 11.00125 -0.00132813 12 0 C13.3303125 0.00169189 13.3303125 0.00169189 14.6875 0.00341797 C17 0.1328125 17 0.1328125 20 1.1328125 C20.3125 3.4453125 20.3125 3.4453125 20 6.1328125 C19.18313721 6.56891846 18.36627441 7.00502441 17.5246582 7.4543457 C14.7620796 8.88617345 14.7620796 8.88617345 14.34057617 11.67651367 C14.32486572 12.66627197 14.30915527 13.65603027 14.29296875 14.67578125 C14.24946289 16.28549805 14.24946289 16.28549805 14.20507812 17.92773438 C14.19927734 19.04728516 14.19347656 20.16683594 14.1875 21.3203125 C14.16236328 22.45146484 14.13722656 23.58261719 14.11132812 24.74804688 C14.05235616 27.5433178 14.01614967 30.33701925 14 33.1328125 C18.46108209 33.62278396 21.71181476 33.68861667 26 32.1328125 C30.97490898 27.69103467 34.43090623 21.70488499 38 16.1328125 C39.24912885 14.2988855 40.49890667 12.46539991 41.75 10.6328125 C42.50525745 9.46954241 43.25791322 8.30452847 44 7.1328125 C43.34 7.1328125 42.68 7.1328125 42 7.1328125 C42 5.4828125 42 3.8328125 42 2.1328125 C45.76437695 -0.30296082 49.16694463 -0.10195154 53.5625 -0.0546875 C54.57086914 -0.0537207 54.57086914 -0.0537207 55.59960938 -0.05273438 C58.66413171 -0.0253454 61.0727161 0.1570512 64 1.1328125 C64 3.4428125 64 5.7528125 64 8.1328125 C63.14728516 8.21015625 63.14728516 8.21015625 62.27734375 8.2890625 C56.34419784 9.16070998 53.55199441 10.90523708 49.8828125 15.58984375 C49.26148438 16.42902344 48.64015625 17.26820312 48 18.1328125 C46.75130761 19.73456967 45.50258516 21.33630356 44.25317383 22.9375 C40.10290774 28.28532849 36.04444495 33.70474165 32 39.1328125 C33.27634845 41.79921445 34.66486901 44.22639051 36.36328125 46.64453125 C36.83193604 47.31218506 37.30059082 47.97983887 37.78344727 48.66772461 C38.28803467 49.37807861 38.79262207 50.08843262 39.3125 50.8203125 C39.83577881 51.55838135 40.35905762 52.2964502 40.89819336 53.05688477 C44.87074262 58.62363046 48.9304934 64.12099052 53.0625 69.5703125 C53.61010986 70.29758545 54.15771973 71.0248584 54.72192383 71.77416992 C55.23779053 72.44810791 55.75365723 73.1220459 56.28515625 73.81640625 C56.96396851 74.70670532 56.96396851 74.70670532 57.65649414 75.61499023 C60.40017958 78.71466176 63.06400068 79.49454234 67 80.1328125 C66.88183315 74.06374799 66.75759036 67.99485002 66.62768555 61.92602539 C66.58434197 59.86095574 66.54266648 57.79585038 66.50268555 55.73071289 C66.44496917 52.76437615 66.38127849 49.79821905 66.31640625 46.83203125 C66.29969376 45.9069426 66.28298126 44.98185394 66.26576233 44.0287323 C66.2358445 42.73773369 66.2358445 42.73773369 66.20532227 41.4206543 C66.18200584 40.28481148 66.18200584 40.28481148 66.15821838 39.12602234 C66.06367677 36.92356435 66.06367677 36.92356435 65 34.1328125 C63.00334686 32.44742649 63.00334686 32.44742649 61 31.1328125 C61.33 29.8128125 61.66 28.4928125 62 27.1328125 C76.7 23.69947917 76.7 23.69947917 81 25.1328125 C81.495 27.6078125 81.495 27.6078125 82 30.1328125 C83.0828125 29.2046875 83.0828125 29.2046875 84.1875 28.2578125 C88.26978272 25.17342111 90.86728988 24.1328125 96 24.1328125 C96 23.1428125 96 22.1528125 96 21.1328125 C97.65 21.1328125 99.3 21.1328125 101 21.1328125 C101.495 24.1028125 101.495 24.1028125 102 27.1328125 C102.88042969 26.91625 103.76085937 26.6996875 104.66796875 26.4765625 C105.82941406 26.198125 106.99085938 25.9196875 108.1875 25.6328125 C109.33605469 25.354375 110.48460937 25.0759375 111.66796875 24.7890625 C114.57916094 24.21569757 117.05041738 23.9171209 120 24.1328125 C121.66623578 25.79904828 121.16740691 27.82040162 121.20532227 30.11157227 C121.22526749 31.17259659 121.24521271 32.23362091 121.26576233 33.32679749 C121.29083107 35.05802101 121.29083107 35.05802101 121.31640625 36.82421875 C121.33718735 37.99919418 121.35796844 39.17416962 121.37937927 40.38475037 C121.44500124 44.15487574 121.5038183 47.92507332 121.5625 51.6953125 C121.6056732 54.24414823 121.64928708 56.79297653 121.69335938 59.34179688 C121.80069545 65.60539142 121.9024379 71.86905851 122 78.1328125 C123.32 78.7928125 124.64 79.4528125 126 80.1328125 C126 82.1128125 126 84.0928125 126 86.1328125 C121.82171361 87.52557463 117.87575966 87.31706156 113.5 87.3203125 C112.63246094 87.33255859 111.76492188 87.34480469 110.87109375 87.35742188 C110.03707031 87.35935547 109.20304687 87.36128906 108.34375 87.36328125 C107.58255859 87.36739014 106.82136719 87.37149902 106.03710938 87.37573242 C104 87.1328125 104 87.1328125 101 85.1328125 C101.33 83.4828125 101.66 81.8328125 102 80.1328125 C102.99 79.8028125 103.98 79.4728125 105 79.1328125 C105.09878601 73.06393199 105.17142949 66.99551811 105.21972656 60.92602539 C105.23985731 58.86083832 105.26716445 56.79570834 105.30175781 54.73071289 C105.35021162 51.76434249 105.37295385 48.79872478 105.390625 45.83203125 C105.41127014 44.9069426 105.43191528 43.98185394 105.45318604 43.0287323 C105.62170801 38.01736343 105.62170801 38.01736343 102.97558594 34.02661133 C101.9976709 33.58418091 101.9976709 33.58418091 101 33.1328125 C100.566875 33.9371875 100.13375 34.7415625 99.6875 35.5703125 C96.08036451 39.00967425 93.39822129 38.73120841 88.55859375 38.796875 C86.05025558 38.9512509 86.05025558 38.9512509 84.35839844 40.12963867 C82.18631789 43.33271576 82.63420425 46.78574403 82.70703125 50.51953125 C82.71127609 51.33654007 82.71552094 52.15354889 82.71989441 52.99531555 C82.73668309 55.60398357 82.77433481 58.21187812 82.8125 60.8203125 C82.82754663 62.58918155 82.84123508 64.35806271 82.85351562 66.12695312 C82.88658714 70.46253746 82.9383701 74.79754386 83 79.1328125 C84.98 79.6278125 84.98 79.6278125 87 80.1328125 C87.04254356 82.13235996 87.04080783 84.13322886 87 86.1328125 C85.02200373 88.11080877 81.16318044 87.32042938 78.45703125 87.3359375 C77.69581467 87.34163757 76.93459808 87.34733765 76.15031433 87.35321045 C74.53373612 87.36267772 72.91713846 87.36920126 71.30053711 87.37304688 C68.83998193 87.38270463 66.38027907 87.41369028 63.91992188 87.4453125 C62.34896329 87.45184726 60.77799873 87.45709587 59.20703125 87.4609375 C58.10981499 87.4794577 58.10981499 87.4794577 56.99043274 87.49835205 C51.29464124 87.47382907 47.22180739 86.19215571 43.0234375 82.30078125 C42.47945312 81.64722656 41.93546875 80.99367188 41.375 80.3203125 C40.82585937 79.67449219 40.27671875 79.02867187 39.7109375 78.36328125 C37.66948383 75.70193411 35.84992769 72.93107857 34 70.1328125 C32.01768327 67.2661478 30.00951505 64.41795449 28 61.5703125 C27.47921875 60.82845703 26.9584375 60.08660156 26.421875 59.32226562 C21.82734772 51.85272904 21.82734772 51.85272904 15 47.1328125 C15 57.6928125 15 68.2528125 15 79.1328125 C16.98 79.4628125 18.96 79.7928125 21 80.1328125 C21 82.1128125 21 84.0928125 21 86.1328125 C18.04086588 87.11919054 16.08601102 87.2617002 13 87.265625 C12.030625 87.26691406 11.06125 87.26820313 10.0625 87.26953125 C8.5465625 87.26373047 8.5465625 87.26373047 7 87.2578125 C5.989375 87.26167969 4.97875 87.26554687 3.9375 87.26953125 C2.968125 87.26824219 1.99875 87.26695312 1 87.265625 C-0.3303125 87.26393311 -0.3303125 87.26393311 -1.6875 87.26220703 C-4 87.1328125 -4 87.1328125 -7 86.1328125 C-7.495 83.6578125 -7.495 83.6578125 -8 81.1328125 C-5.525 80.1428125 -5.525 80.1428125 -3 79.1328125 C-2.67 55.7028125 -2.34 32.2728125 -2 8.1328125 C-4.97 7.6378125 -4.97 7.6378125 -8 7.1328125 C-8 5.1528125 -8 3.1728125 -8 1.1328125 C-5.04086588 0.14643446 -3.08601102 0.0039248 0 0 Z " fill="#444445" transform="translate(185,75.8671875)"/>
<path d="M0 0 C1.20161511 3.60484534 1.23017136 6.97289857 1.31640625 10.73046875 C1.33718735 11.48088943 1.35796844 12.23131012 1.37937927 13.00447083 C1.44469926 15.39872184 1.50367792 17.79308139 1.5625 20.1875 C1.60570193 21.81186013 1.64931676 23.43620933 1.69335938 25.06054688 C1.80036263 29.04025371 1.90167937 33.02006958 2 37 C2.93585938 36.36578125 3.87171875 35.7315625 4.8359375 35.078125 C11.61999012 30.62242624 18.05704184 30.33630269 26 31 C32.06393946 32.68995034 36.2583311 36.01420299 40 41 C45.28491874 51.23454052 46.67899987 62.85786207 44.3515625 74.14453125 C41.55953611 82.67572299 36.97277595 88.75890967 29 93 C20.36972922 96.50196682 10.81344379 96.47780104 2.1875 93 C1.03314453 92.443125 1.03314453 92.443125 -0.14453125 91.875 C-1.95958507 90.85782316 -1.95958507 90.85782316 -4 91 C-4.556875 91.680625 -5.11375 92.36125 -5.6875 93.0625 C-6.450625 93.701875 -7.21375 94.34125 -8 95 C-10.31 94.67 -12.62 94.34 -15 94 C-15 66.28 -15 38.56 -15 10 C-16.32 9.67 -17.64 9.34 -19 9 C-18.67 7.35 -18.34 5.7 -18 4 C-16.1291122 3.32187886 -14.25305707 2.6580054 -12.375 2 C-11.33085937 1.62875 -10.28671875 1.2575 -9.2109375 0.875 C-5.98225494 -0.00483564 -3.32755706 -0.15988262 0 0 Z M1 47 C0.95029307 51.02014331 0.91413613 55.04016578 0.89013672 59.06054688 C0.8801241 60.4261385 0.86650995 61.79170894 0.84912109 63.15722656 C0.82466427 65.12815912 0.8145428 67.09925284 0.8046875 69.0703125 C0.79421387 70.25383301 0.78374023 71.43735352 0.77294922 72.65673828 C1.12050215 77.77436177 2.09450061 81.00615921 5.5625 84.8125 C9.38715422 87.6949833 13.28785373 88.25448874 18 88 C21.70645455 87.08857675 24.02886046 86.36667965 26.28515625 83.19140625 C30.93843131 74.36852988 31.66781872 62.74378876 29.28125 53.09375 C27.37397998 48.47938706 25.25256713 45.77472465 21 43 C17.89567282 42.37078579 17.89567282 42.37078579 14.625 42.5 C13.54476562 42.4896875 12.46453125 42.479375 11.3515625 42.46875 C7.10542858 43.14179687 4.60868647 44.69774939 1 47 Z " fill="#454444" transform="translate(380,69)"/>
<path d="M0 0 C1 1 1 1 1.12025452 3.13233948 C1.1169236 4.54131752 1.1169236 4.54131752 1.11352539 5.97875977 C1.11344986 7.03978409 1.11337433 8.10080841 1.11329651 9.19398499 C1.10813522 10.348134 1.10297394 11.50228302 1.09765625 12.69140625 C1.0962413 13.86638168 1.09482635 15.04135712 1.09336853 16.25193787 C1.08774992 20.02215064 1.07519426 23.79230504 1.0625 27.5625 C1.0574874 30.11132727 1.05292408 32.66015547 1.04882812 35.20898438 C1.03777444 41.47267633 1.02101821 47.73633399 1 54 C6.61121683 52.65242025 6.61121683 52.65242025 11.2734375 49.46875 C11.78777344 48.98792969 12.30210937 48.50710937 12.83203125 48.01171875 C13.34121094 47.51285156 13.85039063 47.01398438 14.375 46.5 C14.90738281 46.00113281 15.43976562 45.50226563 15.98828125 44.98828125 C18.87114499 42.28752825 18.87114499 42.28752825 21 39 C20.01 38.67 19.02 38.34 18 38 C18 36.35 18 34.7 18 33 C21.76300374 31.74566542 25.27210909 31.89304578 29.1875 31.9375 C29.93708984 31.94201172 30.68667969 31.94652344 31.45898438 31.95117188 C33.30602383 31.96293646 35.15302213 31.98087135 37 32 C37 34.31 37 36.62 37 39 C30.25 43 30.25 43 28 43 C28 43.66 28 44.32 28 45 C27.34 45 26.68 45 26 45 C25.67 45.99 25.34 46.98 25 48 C23.36735356 49.45961383 21.67087977 50.84906752 19.9375 52.1875 C19.01839844 52.90292969 18.09929688 53.61835937 17.15234375 54.35546875 C16.44207031 54.89816406 15.73179687 55.44085938 15 56 C19.25262418 65.26079072 27.08001177 75.91745657 34.9375 82.4375 C38.07256612 86.33258214 37.42080327 90.1841403 37 95 C31.24173534 95.34549588 26.90282559 95.41066128 22 92 C14.83532447 85.39506475 9.60987883 76.52192162 4.10400391 68.54711914 C3.08708128 67.03212942 3.08708128 67.03212942 2 66 C2 72.6 2 79.2 2 86 C3.32 86.66 4.64 87.32 6 88 C6.8125 90 6.8125 90 7 92 C6.67 92.66 6.34 93.32 6 94 C1.97810055 95.34063315 -1.72662522 95.18417125 -5.9375 95.1875 C-7.15469727 95.20586914 -7.15469727 95.20586914 -8.39648438 95.22460938 C-9.18216797 95.22654297 -9.96785156 95.22847656 -10.77734375 95.23046875 C-11.49140381 95.23457764 -12.20546387 95.23868652 -12.94116211 95.24291992 C-15.31136132 94.96326283 -16.93707267 94.17114859 -19 93 C-18.67 91.35 -18.34 89.7 -18 88 C-16.515 87.505 -16.515 87.505 -15 87 C-14.90733531 77.2903795 -14.83625302 67.58086413 -14.79275131 57.87089157 C-14.77187298 53.36217383 -14.74355111 48.85375852 -14.69824219 44.34521484 C-14.65479281 39.99449947 -14.63086475 35.64407507 -14.62049103 31.29315948 C-14.61309798 29.6329312 -14.59866102 27.97271891 -14.57707977 26.31261444 C-14.5480568 23.98768151 -14.54404337 21.66395201 -14.54589844 19.33886719 C-14.53151733 18.6519429 -14.51713623 17.96501862 -14.50231934 17.25727844 C-14.5319565 13.8262886 -14.71780036 12.3157208 -17.04400635 9.7131958 C-17.68948425 9.14784119 -18.33496216 8.58248657 -19 8 C-18.75 5.25 -18.75 5.25 -18 3 C-6.31690141 -0.54929577 -6.31690141 -0.54929577 0 0 Z " fill="#454444" transform="translate(575,68)"/>
<path d="M0 0 C0.66 1.98 1.32 3.96 2 6 C2.86625 5.38125 3.7325 4.7625 4.625 4.125 C11.56892088 -0.24709833 17.930989 -0.69924029 26 0 C31.00248005 1.63717529 34.29897889 4.50375108 37 9 C41.12259575 17.97843634 40.55587136 27.96781403 40.6875 37.625 C40.72073187 39.31382762 40.75522679 41.00263088 40.79101562 42.69140625 C40.87524363 46.794135 40.94236563 50.89681503 41 55 C42.32 55.33 43.64 55.66 45 56 C45 57.98 45 59.96 45 62 C42.16017118 62.94660961 40.38144671 63.12867774 37.4375 63.1328125 C36.55835938 63.13410156 35.67921875 63.13539063 34.7734375 63.13671875 C33.85820313 63.13285156 32.94296875 63.12898438 32 63.125 C31.08476563 63.12886719 30.16953125 63.13273437 29.2265625 63.13671875 C27.90785156 63.13478516 27.90785156 63.13478516 26.5625 63.1328125 C25.75941406 63.13168457 24.95632813 63.13055664 24.12890625 63.12939453 C22 63 22 63 19 62 C18.25 60.0625 18.25 60.0625 18 58 C18.495 57.01 18.495 57.01 19 56 C21.0625 55.375 21.0625 55.375 23 55 C23.09894543 49.66151328 23.17150414 44.32356131 23.21972656 38.984375 C23.23983061 37.1685252 23.26711835 35.35274005 23.30175781 33.53710938 C23.35033039 30.92561895 23.37298027 28.31498502 23.390625 25.703125 C23.41127014 24.89256653 23.43191528 24.08200806 23.45318604 23.24688721 C23.45463426 19.601508 23.341328 17.46100107 21.1394043 14.48706055 C17.15685576 11.71886437 12.64373693 12.40058589 8 13 C5.02015833 14.33170309 5.02015833 14.33170309 3 16 C2.34 16 1.68 16 1 16 C1.01938817 21.35759734 1.07100413 26.71354468 1.15258789 32.07055664 C1.17579308 33.89305634 1.19016953 35.71569062 1.19555664 37.53833008 C1.20482826 40.15791939 1.24577536 42.77538477 1.29296875 45.39453125 C1.2890361 46.21025101 1.28510345 47.02597076 1.28105164 47.8664093 C1.29207736 50.43978922 1.29207736 50.43978922 2 54 C4.38144422 56.11447396 4.38144422 56.11447396 7 57 C6.625 59.4375 6.625 59.4375 6 62 C3.63205997 63.18397001 2.17418691 63.12913001 -0.46484375 63.1328125 C-1.34720703 63.13410156 -2.22957031 63.13539063 -3.13867188 63.13671875 C-4.5240918 63.13091797 -4.5240918 63.13091797 -5.9375 63.125 C-6.85724609 63.12886719 -7.77699219 63.13273437 -8.72460938 63.13671875 C-9.60826172 63.13542969 -10.49191406 63.13414062 -11.40234375 63.1328125 C-12.21179443 63.13168457 -13.02124512 63.13055664 -13.85522461 63.12939453 C-16 63 -16 63 -19 62 C-19.75 60.0625 -19.75 60.0625 -20 58 C-19.67 57.34 -19.34 56.68 -19 56 C-17.68 56 -16.36 56 -15 56 C-14.87627098 49.82535087 -14.78559856 43.65142544 -14.7253418 37.47583008 C-14.70021949 35.3757673 -14.66611542 33.27579177 -14.62280273 31.17602539 C-14.56205129 28.1548916 -14.53376737 25.13491504 -14.51171875 22.11328125 C-14.48591232 21.17664139 -14.4601059 20.24000153 -14.43351746 19.27497864 C-14.41646084 13.64303226 -14.41646084 13.64303226 -17.54223633 9.01245117 C-18.35329834 8.34834229 -19.16436035 7.6842334 -20 7 C-19.8125 4.6875 -19.8125 4.6875 -19 3 C-6.51480638 -0.44419134 -6.51480638 -0.44419134 0 0 Z " fill="#434243" transform="translate(508,100)"/>
<path d="M0 0 C4.87081908 5.5272637 6.14078925 10.17687296 6.28125 17.484375 C6.30886414 18.58510345 6.30886414 18.58510345 6.33703613 19.70806885 C6.39571843 22.05529855 6.44850931 24.40260222 6.5 26.75 C6.56813695 29.82826168 6.64193098 32.90631924 6.71875 35.984375 C6.73232544 36.68254333 6.74590088 37.38071167 6.7598877 38.10003662 C6.86925552 42.48647696 7.30474215 46.6778606 8 51 C10.97 51.495 10.97 51.495 14 52 C14 53.98 14 55.96 14 58 C10.46502138 59.17832621 7.24106929 59.18397309 3.5625 59.1875 C2.24378906 59.20167969 0.92507813 59.21585937 -0.43359375 59.23046875 C-3.66264495 59.0218006 -5.38868653 58.82856103 -8 57 C-8.33 56.34 -8.66 55.68 -9 55 C-9.59167969 55.27714844 -10.18335938 55.55429688 -10.79296875 55.83984375 C-17.93542436 59.11395472 -25.25359009 61.85539065 -33.1171875 59.31640625 C-38.03033419 57.08231502 -41.10419423 54.56308789 -44 50 C-45.67288616 44.99173211 -45.16517374 40.60613979 -43.05859375 35.8125 C-36.96978353 25.38737844 -20.76348908 22.41352218 -10 19 C-9.94501872 17.62546802 -9.90677178 16.25026422 -9.875 14.875 C-9.85179687 14.10929687 -9.82859375 13.34359375 -9.8046875 12.5546875 C-9.94531685 9.35408492 -9.94531685 9.35408492 -12 4 C-16.62 4 -21.24 4 -26 4 C-26.0928125 7.34125 -26.0928125 7.34125 -26.1875 10.75 C-26.37122309 17.3640312 -26.37122309 17.3640312 -29.390625 20.41796875 C-32.34789354 22.21092348 -33.62373285 22.77913857 -37 22 C-40.0560466 19.27433682 -40.91873383 17.63851993 -41.4375 13.5625 C-40.65349343 7.17844651 -38.00360849 3.27703024 -33.0859375 -0.67578125 C-22.86025337 -7.16736724 -10.08139595 -6.35566267 0 0 Z M-16.75 29.6875 C-17.37132812 29.93177734 -17.99265625 30.17605469 -18.6328125 30.42773438 C-23.00825538 32.25083557 -25.98077402 34.34634004 -29 38 C-29.75045506 41.58543666 -29.75045506 41.58543666 -29 45 C-26.1471609 47.78200111 -24.06229907 48.41179719 -20.125 48.375 C-19.30257813 48.38273437 -18.48015625 48.39046875 -17.6328125 48.3984375 C-14.29149843 48.03117954 -14.29149843 48.03117954 -9 45 C-9 39.06 -9 33.12 -9 27 C-11.57958515 27 -14.36434409 28.69991572 -16.75 29.6875 Z " fill="#434243" transform="translate(473,104)"/>
<path d="M0 0 C4.11313523 1.64525409 6.59510458 2.9290262 10 5.5625 C10.825 6.18253906 11.65 6.80257812 12.5 7.44140625 C24.16250799 19.37725427 20 28.03121189 20 46 C-11.35 46 -42.7 46 -75 46 C-75 16.58556701 -75 16.58556701 -69.10546875 9.828125 C-68.47253906 9.30734375 -67.83960938 8.7865625 -67.1875 8.25 C-66.56230469 7.71890625 -65.93710938 7.1878125 -65.29296875 6.640625 C-62.34600089 4.53206197 -59.14618749 2.79782142 -56 1 C-56 13.54 -56 26.08 -56 39 C-37.52 39 -19.04 39 0 39 C0 26.13 0 13.26 0 0 Z " fill="#D1D1D1" transform="translate(111,77)"/>
<path d="M0 0 C3.83799932 3.52681018 4.75423248 6.2253938 5.29296875 11.18359375 C5.31742117 13.6141639 4.71210823 15.1490825 3.3125 17.125 C1.3325 17.125 -0.6475 17.125 -2.6875 17.125 C-3.02523437 16.41472656 -3.36296875 15.70445313 -3.7109375 14.97265625 C-4.15695312 14.05355469 -4.60296875 13.13445312 -5.0625 12.1875 C-5.50335938 11.27097656 -5.94421875 10.35445312 -6.3984375 9.41015625 C-7.47949162 6.99596198 -7.47949162 6.99596198 -9.6875 6.125 C-11.30915752 6.00351695 -12.93634327 5.94956348 -14.5625 5.9375 C-15.42617188 5.92332031 -16.28984375 5.90914062 -17.1796875 5.89453125 C-19.8116288 6.13640748 -21.42730544 6.79516459 -23.6875 8.125 C-23.6875 10.765 -23.6875 13.405 -23.6875 16.125 C-19.07836044 18.60684438 -14.70339266 20.48504765 -9.6875 22 C-3.70008855 23.92506647 1.91791141 26.52919155 5.50390625 31.9140625 C7.59324691 37.62694565 7.01328028 44.75986654 5.3125 50.5 C0.95025745 56.22544335 -3.63451615 60.28700296 -10.6875 62.125 C-19.37807508 62.96461641 -28.07769205 62.69760116 -35.1875 57.1875 C-37.68432659 53.75436344 -37.81121841 50.53785214 -37.75 46.375 C-37.74097656 45.57578125 -37.73195313 44.7765625 -37.72265625 43.953125 C-37.71105469 43.34984375 -37.69945312 42.7465625 -37.6875 42.125 C-34.2225 41.63 -34.2225 41.63 -30.6875 41.125 C-30.36136719 41.82367188 -30.03523438 42.52234375 -29.69921875 43.2421875 C-29.26222656 44.15226562 -28.82523437 45.06234375 -28.375 46 C-27.94574219 46.90492188 -27.51648438 47.80984375 -27.07421875 48.7421875 C-25.7675612 51.38949476 -25.7675612 51.38949476 -22.6875 53.125 C-17.31728537 53.78288954 -12.35533383 53.92684319 -7.4375 51.5625 C-5.11000382 48.32063033 -5.55989731 46.03055365 -5.6875 42.125 C-6.54915771 41.79290527 -6.54915771 41.79290527 -7.42822266 41.45410156 C-10.0592708 40.43518669 -12.68585174 39.40520141 -15.3125 38.375 C-16.66794922 37.85292969 -16.66794922 37.85292969 -18.05078125 37.3203125 C-25.82740885 34.25507243 -31.36838926 31.64345203 -35.6875 24.125 C-37.56629588 18.48861236 -36.9870628 13.43440095 -34.7109375 8.046875 C-31.86489785 2.7024036 -28.38056204 0.04737594 -22.625 -1.8125 C-15.44411526 -3.46057191 -6.48369083 -4.09579494 0 0 Z " fill="#434243" transform="translate(351.6875,101.875)"/>
<path d="M0 0 C0.969375 -0.00128906 1.93875 -0.00257812 2.9375 -0.00390625 C4.4534375 0.00189453 4.4534375 0.00189453 6 0.0078125 C7.010625 0.00394531 8.02125 0.00007813 9.0625 -0.00390625 C10.031875 -0.00261719 11.00125 -0.00132813 12 0 C13.3303125 0.00169189 13.3303125 0.00169189 14.6875 0.00341797 C17 0.1328125 17 0.1328125 20 1.1328125 C20.3125 3.4453125 20.3125 3.4453125 20 6.1328125 C19.18168701 6.57326904 18.36337402 7.01372559 17.52026367 7.4675293 C14.77354257 8.87736777 14.77354257 8.87736777 14.37231445 11.58129883 C14.3693335 12.53286865 14.36635254 13.48443848 14.36328125 14.46484375 C14.34330078 15.51091797 14.32332031 16.55699219 14.30273438 17.63476562 C14.30756836 19.27348633 14.30756836 19.27348633 14.3125 20.9453125 C14.21063243 34.08622931 14.21063243 34.08622931 12 39.1328125 C13.98 39.1328125 15.96 39.1328125 18 39.1328125 C18 41.4428125 18 43.7528125 18 46.1328125 C16.515 46.6278125 16.515 46.6278125 15 47.1328125 C15 57.6928125 15 68.2528125 15 79.1328125 C16.98 79.4628125 18.96 79.7928125 21 80.1328125 C21 82.1128125 21 84.0928125 21 86.1328125 C18.04086588 87.11919054 16.08601102 87.2617002 13 87.265625 C12.030625 87.26691406 11.06125 87.26820313 10.0625 87.26953125 C8.5465625 87.26373047 8.5465625 87.26373047 7 87.2578125 C5.989375 87.26167969 4.97875 87.26554687 3.9375 87.26953125 C2.968125 87.26824219 1.99875 87.26695312 1 87.265625 C-0.3303125 87.26393311 -0.3303125 87.26393311 -1.6875 87.26220703 C-4 87.1328125 -4 87.1328125 -7 86.1328125 C-7.495 83.6578125 -7.495 83.6578125 -8 81.1328125 C-5.525 80.1428125 -5.525 80.1428125 -3 79.1328125 C-2.67 55.7028125 -2.34 32.2728125 -2 8.1328125 C-4.97 7.6378125 -4.97 7.6378125 -8 7.1328125 C-8 5.1528125 -8 3.1728125 -8 1.1328125 C-5.04086588 0.14643446 -3.08601102 0.0039248 0 0 Z " fill="#414041" transform="translate(185,75.8671875)"/>
<path d="M0 0 C0 3.63 0 7.26 0 11 C-0.87140625 10.75378906 -1.7428125 10.50757813 -2.640625 10.25390625 C-7.04626037 9.92092218 -8.36475051 11.20218101 -11.75 13.9375 C-16.85077187 18 -16.85077187 18 -19 18 C-19 26.58 -19 35.16 -19 44 C-17.68 44.66 -16.36 45.32 -15 46 C-14.34 46.33 -13.68 46.66 -13 47 C-13.04713135 45.89543457 -13.04713135 45.89543457 -13.09521484 44.76855469 C-13.22000066 41.42934949 -13.29799307 38.09063415 -13.375 34.75 C-13.42527344 33.59113281 -13.47554687 32.43226562 -13.52734375 31.23828125 C-13.67193052 22.90044393 -13.67193052 22.90044393 -11.734375 20.30395508 C-9.18319614 18.51428111 -7.34800594 17.97627232 -4.25 18.1875 C-2 19 -2 19 0 20 C0 32.21 0 44.42 0 57 C-5.94 57 -11.88 57 -18 57 C-19.485 54.525 -19.485 54.525 -21 52 C-21.66 51.67 -22.32 51.34 -23 51 C-23 52.98 -23 54.96 -23 57 C-29.27 57 -35.54 57 -42 57 C-42.04585851 51.76703474 -42.08569905 46.53476376 -42.10986328 41.30175781 C-42.11993431 39.52080933 -42.13359185 37.73987743 -42.15087891 35.95898438 C-42.17507913 33.40230217 -42.18647184 30.84583815 -42.1953125 28.2890625 C-42.20563507 27.49005524 -42.21595764 26.69104797 -42.22659302 25.86782837 C-42.22699226 23.9104278 -42.12241069 21.95356923 -42 20 C-41.34 19.34 -40.68 18.68 -40 18 C-37.05366888 18.15926114 -35.02515498 18.98761024 -32.3828125 20.2890625 C-28.52346586 24.67986015 -29.21700816 29.5975476 -29.1875 35.25 C-29.16236328 36.37664062 -29.13722656 37.50328125 -29.11132812 38.6640625 C-29.05245108 41.44305908 -29.01617475 44.22048033 -29 47 C-26.9324347 45.87565158 -26.9324347 45.87565158 -25 44 C-23.07728835 36.2428781 -22.1892089 23.16685866 -26.09863281 15.98046875 C-29.11750884 12.66847719 -32.70023407 10.98863231 -37 10 C-40.2899319 10.26498823 -40.2899319 10.26498823 -43 11 C-43 7.7 -43 4.4 -43 1 C-37.84698958 2.76312833 -33.63769772 5.83213002 -29.25976562 8.98632812 C-26.47166554 10.87857966 -24.47037653 11.98115982 -21.07421875 12.1171875 C-16.78183709 10.5573131 -13.41478897 8.12568312 -9.75 5.4375 C-8.3309914 4.41138894 -6.90924562 3.38904907 -5.484375 2.37109375 C-4.86272461 1.91661865 -4.24107422 1.46214355 -3.60058594 0.99389648 C-2 0 -2 0 0 0 Z " fill="#D4D3D4" transform="translate(105,53)"/>
<path d="M0 0 C31.35 0 62.7 0 95 0 C95 14.67965368 95 14.67965368 91.875 20.375 C91.55877686 20.95805908 91.24255371 21.54111816 90.91674805 22.1418457 C87.67188841 27.94685492 83.7845024 33.48798068 78 37 C77.34 37 76.68 37 76 37 C76 29.74 76 22.48 76 15 C77.65 15 79.3 15 81 15 C78.92621919 9.93075803 76.85096644 7.5681587 72 5 C68.76961158 4.20929452 68.76961158 4.20929452 66 4 C66.495 4.433125 66.99 4.86625 67.5 5.3125 C69 7 69 7 69 10 C63.06 10 57.12 10 51 10 C50.505 9.01 50.505 9.01 50 8 C49.37738281 8.32742187 48.75476563 8.65484375 48.11328125 8.9921875 C43.76976693 10.39824358 39.7195531 10.21286978 35.1875 10.125 C34.30384766 10.11597656 33.42019531 10.10695312 32.50976562 10.09765625 C30.33972641 10.07419637 28.16982753 10.03832865 26 10 C28.875 5.125 28.875 5.125 30 4 C24.56129427 4.39795408 20.89550695 6.28950394 17 10 C15.52227843 12.6378567 15.52227843 12.6378567 15 15 C16.32 15 17.64 15 19 15 C19 21.93 19 28.86 19 36 C9.63002506 31.31501253 4.91216671 23.47583632 1 14 C0 10 0 10 0 0 Z " fill="#D5D4D5" transform="translate(36,130)"/>
<path d="M0 0 C6.27 0 12.54 0 19 0 C19.1875 7.625 19.1875 7.625 19.20776367 9.99072266 C19.24994019 10.94277588 19.24994019 10.94277588 19.29296875 11.9140625 C19.3086792 12.5529541 19.32438965 13.1918457 19.34057617 13.85009766 C20.14177471 16.95655997 20.14177471 16.95655997 25 22 C25.33 14.74 25.66 7.48 26 0 C31.61 0 37.22 0 43 0 C43 8.25 43 16.5 43 25 C27.67806883 29.22673963 16.26601724 30.42259386 1 25 C0 24 0 24 -0.11352539 21.68334961 C-0.10828857 20.68311768 -0.10305176 19.68288574 -0.09765625 18.65234375 C-0.09443359 17.57275391 -0.09121094 16.49316406 -0.08789062 15.38085938 C-0.07951172 14.24455078 -0.07113281 13.10824219 -0.0625 11.9375 C-0.05798828 10.79732422 -0.05347656 9.65714844 -0.04882812 8.48242188 C-0.0369976 5.65492582 -0.0190615 2.82745655 0 0 Z " fill="#DFDEDF" transform="translate(62,146)"/>
<path d="M0 0 C3.85095536 1.54038214 6.28813971 2.67056883 9.5 5.0625 C10.2321875 5.58972656 10.964375 6.11695312 11.71875 6.66015625 C18.04950804 13.15351938 19.55494158 19.05279835 19.45043945 28.03930664 C19.40491943 29.36696045 19.35939941 30.69461426 19.3125 32.0625 C19.209375 36.331875 19.10625 40.60125 19 45 C2.83 45 -13.34 45 -30 45 C-30 43.02 -30 41.04 -30 39 C-20.1 39 -10.2 39 0 39 C0 26.13 0 13.26 0 0 Z " fill="#E2E2E2" transform="translate(112,78)"/>
<path d="M0 0 C1.66623578 1.66623578 1.16740691 3.68758912 1.20532227 5.97875977 C1.22526749 7.03978409 1.24521271 8.10080841 1.26576233 9.19398499 C1.28247482 10.348134 1.29918732 11.50228302 1.31640625 12.69140625 C1.33718735 13.86638168 1.35796844 15.04135712 1.37937927 16.25193787 C1.44500124 20.02206324 1.5038183 23.79226082 1.5625 27.5625 C1.6056732 30.11133573 1.64928708 32.66016403 1.69335938 35.20898438 C1.80069545 41.47257892 1.9024379 47.73624601 2 54 C3.32 54.66 4.64 55.32 6 56 C6 57.98 6 59.96 6 62 C1.82171361 63.39276213 -2.12424034 63.18424906 -6.5 63.1875 C-7.36753906 63.19974609 -8.23507812 63.21199219 -9.12890625 63.22460938 C-9.96292969 63.22654297 -10.79695313 63.22847656 -11.65625 63.23046875 C-12.41744141 63.23457764 -13.17863281 63.23868652 -13.96289062 63.24291992 C-16 63 -16 63 -19 61 C-18.67 59.35 -18.34 57.7 -18 56 C-16.515 55.505 -16.515 55.505 -15 55 C-14.07478627 52.22435882 -13.87757888 50.52275467 -13.859375 47.65625 C-13.84003906 46.82222656 -13.82070313 45.98820312 -13.80078125 45.12890625 C-13.76693157 43.37653418 -13.74869805 41.62379078 -13.74609375 39.87109375 C-13.67595436 37.48266283 -13.56995491 35.32157983 -13 33 C-10.56640625 31.10546875 -10.56640625 31.10546875 -8 30 C-5.15806229 25.00210954 -4.20413388 20.62633136 -5 15 C-6.35189457 10.41857951 -7.07000815 8.56528916 -11.1875 6.0625 C-12.115625 5.711875 -13.04375 5.36125 -14 5 C-13.67 4.01 -13.34 3.02 -13 2 C-8.62765134 0.61542292 -4.61698366 -0.41972579 0 0 Z " fill="#434142" transform="translate(305,100)"/>
<path d="M0 0 C-1.98 2.97 -1.98 2.97 -4 6 C-1.10391407 6.05413245 1.79115195 6.09373641 4.6875 6.125 C5.50412109 6.14175781 6.32074219 6.15851563 7.16210938 6.17578125 C11.57092929 6.2114802 14.98731576 6.07580814 19 4 C19.495 5.485 19.495 5.485 20 7 C25.94 7 31.88 7 38 7 C37.01 5.35 36.02 3.7 35 2 C34.505 1.01 34.505 1.01 34 0 C40.34539222 0.26439134 44.52956 2.4423319 49 7 C50 9.875 50 9.875 50 12 C48.35 12 46.7 12 45 12 C45 19.26 45 26.52 45 34 C44.67 34 44.34 34 44 34 C43.67 26.74 43.34 19.48 43 12 C41.68 11.67 40.36 11.34 39 11 C39 20.24 39 29.48 39 39 C37.68 38.67 36.36 38.34 35 38 C35.99 38 36.98 38 38 38 C38 29.75 38 21.5 38 13 C32.39 13 26.78 13 21 13 C21 20.59 21 28.18 21 36 C16 32 16 32 14 29 C13.85710797 26.22503673 13.81262458 23.58047807 13.875 20.8125 C13.91625 18.234375 13.9575 15.65625 14 13 C7.73 13 1.46 13 -5 13 C-5 20.92 -5 28.84 -5 37 C-5.33 37 -5.66 37 -6 37 C-6 28.75 -6 20.5 -6 12 C-9.3 12 -12.6 12 -16 12 C-16 9.875 -16 9.875 -15 7 C-10.33454431 2.71393302 -6.40468741 -0.16854441 0 0 Z " fill="#575657" transform="translate(67,133)"/>
<path d="M0 0 C0 0.99 0 1.98 0 3 C0.63940534 7.72396482 3.64125758 9.97087692 6.99609375 13.09765625 C11.97856696 17.82760646 13.64992473 22.47463617 15 29 C13.35 28.67 11.7 28.34 10 28 C9.67 30.31 9.34 32.62 9 35 C8.67 35 8.34 35 8 35 C8 31.37 8 27.74 8 24 C4.7 24 1.4 24 -2 24 C-2 29.28 -2 34.56 -2 40 C-2.99 40.495 -2.99 40.495 -4 41 C-4 35.39 -4 29.78 -4 24 C-7.3 24 -10.6 24 -14 24 C-14.33 24.99 -14.66 25.98 -15 27 C-15.33 26.01 -15.66 25.02 -16 24 C-16.99 24 -17.98 24 -19 24 C-17.60827683 19.9625531 -15.70711315 17.10184153 -13 13.8125 C-12.29875 12.95269531 -11.5975 12.09289062 -10.875 11.20703125 C-9 9 -9 9 -7 7 C-6.835 5.989375 -6.67 4.97875 -6.5 3.9375 C-6.335 2.968125 -6.17 1.99875 -6 1 C-4 0 -4 0 0 0 Z " fill="#444445" transform="translate(87,14)"/>
<path d="M0 0 C1.65 0 3.3 0 5 0 C5.33 1.98 5.66 3.96 6 6 C7.65 5.67 9.3 5.34 11 5 C10.67 5.99 10.34 6.98 10 8 C11.3921875 8.37125 11.3921875 8.37125 12.8125 8.75 C16.22760915 10.08925849 17.24441389 10.85842485 19 14 C20.76461568 18.491749 20.75250057 23.66888411 19.28125 28.2265625 C17.04521646 33.18550785 16.51602446 33.79359021 11 36 C11 42.27 11 48.54 11 55 C10.67 55 10.34 55 10 55 C9.98598145 53.20598755 9.98598145 53.20598755 9.97167969 51.37573242 C9.93183186 46.94175862 9.86608809 42.50848252 9.79248047 38.07495117 C9.76424052 36.15544593 9.74304105 34.23582375 9.72900391 32.31616211 C9.70761589 29.55782062 9.66098867 26.80088962 9.609375 24.04296875 C9.60814636 23.18350143 9.60691772 22.32403412 9.60565186 21.43852234 C9.6138895 16.67645047 9.6138895 16.67645047 6.96191406 12.93481445 C6.31448242 12.62632568 5.66705078 12.31783691 5 12 C4.525625 12.825 4.05125 13.65 3.5625 14.5 C0.65073592 17.34074545 0.11484254 17.34293183 -3.75 17.3125 C-5.16823316 17.23243845 -6.58603027 17.13595863 -8 17 C-8 16.67 -8 16.34 -8 16 C-7.236875 15.938125 -6.47375 15.87625 -5.6875 15.8125 C-2.13966123 14.73989758 -1.79594408 13.12338101 0 10 C2.1875 9.1875 2.1875 9.1875 4 9 C4 7.68 4 6.36 4 5 C2.68 4.67 1.36 4.34 0 4 C0 2.68 0 1.36 0 0 Z " fill="#4C4A4C" transform="translate(281,97)"/>
<path d="M0 0 C0 1.32 0 2.64 0 4 C-1.64333504 5.03789581 -3.31243867 6.03567924 -5 7 C-5.433125 8.0209375 -5.433125 8.0209375 -5.875 9.0625 C-7 11 -7 11 -10.4375 12.0625 C-11.613125 12.371875 -12.78875 12.68125 -14 13 C-16.18923781 14.64956523 -16.90225423 15.5679786 -17.51171875 18.26171875 C-17.56972656 19.06222656 -17.62773437 19.86273438 -17.6875 20.6875 C-17.75324219 21.49574219 -17.81898438 22.30398437 -17.88671875 23.13671875 C-17.92410156 23.75160156 -17.96148437 24.36648437 -18 25 C-18.99 25 -19.98 25 -21 25 C-22 24 -22 24 -22.09765625 20.83984375 C-22.08025391 18.90818359 -22.08025391 18.90818359 -22.0625 16.9375 C-22.05347656 15.64714844 -22.04445313 14.35679688 -22.03515625 13.02734375 C-22.02355469 12.02832031 -22.01195312 11.02929688 -22 10 C-21.34 10 -20.68 10 -20 10 C-19.95875 9.278125 -19.9175 8.55625 -19.875 7.8125 C-18.39862271 3.06700156 -14.68039857 0.90167728 -10.4375 -1.375 C-6.55092765 -2.37155701 -3.72149642 -1.24049881 0 0 Z " fill="#414042" transform="translate(285,102)"/>
<path d="M0 0 C0 0.99 0 1.98 0 3 C-0.99 3.495 -0.99 3.495 -2 4 C-1.62095792 7.29075996 -1.62095792 7.29075996 0 10 C0.04092937 12.33297433 0.04241723 14.66705225 0 17 C-0.66 17 -1.32 17 -2 17 C-1.98839844 17.73605469 -1.97679687 18.47210938 -1.96484375 19.23046875 C-1.95582031 20.20628906 -1.94679688 21.18210937 -1.9375 22.1875 C-1.92589844 23.15042969 -1.91429687 24.11335938 -1.90234375 25.10546875 C-1.99513378 27.85576513 -2.37888315 30.32479591 -3 33 C-7.21779303 31.49364535 -8.7747674 28.75987578 -11 25 C-12.88191279 19.35426162 -12.26582424 14.34170791 -10.0546875 8.9296875 C-7.75060476 4.71406945 -4.60765582 1.53588527 0 0 Z " fill="#4F4E4E" transform="translate(327,101)"/>
<path d="M0 0 C0.33 0.99 0.66 1.98 1 3 C1.99 3 2.98 3 4 3 C4 16.2 4 29.4 4 43 C-4.58 43 -13.16 43 -22 43 C-22 42.67 -22 42.34 -22 42 C-18.37 42 -14.74 42 -11 42 C-11 40.68 -11 39.36 -11 38 C-7.37 38 -3.74 38 0 38 C0 25.46 0 12.92 0 0 Z " fill="#434242" transform="translate(105,73)"/>
<path d="M0 0 C1.47968324 0.14049518 2.95874516 0.28754826 4.4375 0.4375 C5.67306641 0.55931641 5.67306641 0.55931641 6.93359375 0.68359375 C9 1 9 1 10 2 C9.84932546 9.23237777 6.35524873 14.59738306 1.33984375 19.68359375 C-2.4838881 23 -2.4838881 23 -5 23 C-5 16.4 -5 9.8 -5 3 C-3.35 3 -1.7 3 0 3 C0 2.01 0 1.02 0 0 Z " fill="#E2E2E2" transform="translate(118,143)"/>
<path d="M0 0 C6.21127026 -0.12347317 12.42182856 -0.21427988 18.6340332 -0.2746582 C20.74776652 -0.29982363 22.86141265 -0.33395926 24.97485352 -0.37719727 C28.01079798 -0.43775941 31.04559362 -0.46618909 34.08203125 -0.48828125 C35.02899368 -0.51408768 35.97595612 -0.5398941 36.95161438 -0.56648254 C38.27264412 -0.56704903 38.27264412 -0.56704903 39.62036133 -0.56762695 C40.78285149 -0.58428154 40.78285149 -0.58428154 41.96882629 -0.60127258 C44 0 44 0 47 5 C31.49 5 15.98 5 0 5 C0 3.35 0 1.7 0 0 Z " fill="#434343" transform="translate(66,124)"/>
<path d="M0 0 C3.786171 0.0362313 4.60383306 0.26761204 7.8125 2.625 C9.75 5.375 9.75 5.375 9.75 9.375 C9.09 9.375 8.43 9.375 7.75 9.375 C7.5953125 10.2721875 7.5953125 10.2721875 7.4375 11.1875 C6.60510163 13.83604026 6.07045815 14.8280279 3.75 16.375 C-0.15533049 16.87204206 -2.33182112 17.00322766 -5.625 14.75 C-7.63506043 11.81221938 -8.17733979 9.9353504 -8.25 6.375 C-6.00585109 1.78469542 -5.04058876 0.21697899 0 0 Z " fill="#515051" transform="translate(298.25,73.625)"/>
<path d="M0 0 C6.27 0 12.54 0 19 0 C18.67 1.32 18.34 2.64 18 4 C18.639375 4.2475 19.27875 4.495 19.9375 4.75 C22 6 22 6 23 10 C17.06 10 11.12 10 5 10 C4.67 9.34 4.34 8.68 4 8 C1.97536745 7.34786708 1.97536745 7.34786708 0 7 C0 4.69 0 2.38 0 0 Z " fill="#DEDEDE" transform="translate(82,130)"/>
<path d="M0 0 C8.91 0 17.82 0 27 0 C27.33 1.98 27.66 3.96 28 6 C18.76 6 9.52 6 0 6 C0 4.02 0 2.04 0 0 Z " fill="#D8D7D8" transform="translate(82,117)"/>
<path d="M0 0 C0.33 0 0.66 0 1 0 C1 12.21 1 24.42 1 37 C3.97 37 6.94 37 10 37 C10 35.68 10 34.36 10 33 C15.28 33 20.56 33 26 33 C26 34.65 26 36.3 26 38 C17.42 38 8.84 38 0 38 C0 25.46 0 12.92 0 0 Z " fill="#403F40" transform="translate(56,78)"/>
<path d="M0 0 C2.97 0 5.94 0 9 0 C9.41901462 3.42527823 9.60891318 6.59112708 9 10 C7.01833144 12.36655957 4.82665456 13.78492225 2 15 C1.34 15 0.68 15 0 15 C0 10.05 0 5.1 0 0 Z " fill="#D4D4D4" transform="translate(86,38)"/>
<path d="M0 0 C0.33 0 0.66 0 1 0 C1.33 13.53 1.66 27.06 2 41 C3.65 41 5.3 41 7 41 C7 36.71 7 32.42 7 28 C7.99 28.33 8.98 28.66 10 29 C10.02685938 31.14576637 10.04633088 33.29162645 10.0625 35.4375 C10.07410156 36.63246094 10.08570313 37.82742187 10.09765625 39.05859375 C10 42 10 42 9 43 C6.36 43 3.72 43 1 43 C1 51.58 1 60.16 1 69 C0.67 69 0.34 69 0 69 C0 46.23 0 23.46 0 0 Z " fill="#555555" transform="translate(561,83)"/>
<path d="M0 0 C2.64 0 5.28 0 8 0 C8 4.95 8 9.9 8 15 C3 13 3 13 0 11 C-0.29296875 8.3984375 -0.29296875 8.3984375 -0.1875 5.375 C-0.16042969 4.37210938 -0.13335937 3.36921875 -0.10546875 2.3359375 C-0.07066406 1.56507812 -0.03585938 0.79421875 0 0 Z " fill="#DEDEDE" transform="translate(74,39)"/>
<path d="M0 0 C6.34539222 0.26439134 10.52956 2.4423319 15 7 C16 9.875 16 9.875 16 12 C10.78168857 12.28990619 8.27320453 10.84880302 4 8 C3.28272222 6.35448038 2.61674772 4.68577711 2 3 C1.34 2.01 0.68 1.02 0 0 Z " fill="#4A4A4A" transform="translate(101,133)"/>
<path d="M0 0 C-3.75 5.875 -3.75 5.875 -6 7 C-6.33 8.32 -6.66 9.64 -7 11 C-11.455 11.495 -11.455 11.495 -16 12 C-16 9.875 -16 9.875 -15 7 C-10.33454431 2.71393302 -6.40468741 -0.16854441 0 0 Z " fill="#4B4A4A" transform="translate(67,133)"/>
<path d="M0 0 C-0.33 1.65 -0.66 3.3 -1 5 C-7.27 5 -13.54 5 -20 5 C-20 3.68 -20 2.36 -20 1 C-17.22922802 0.83225597 -14.45839073 0.66576064 -11.6875 0.5 C-10.90181641 0.45230469 -10.11613281 0.40460938 -9.30664062 0.35546875 C-8.54931641 0.31035156 -7.79199219 0.26523438 -7.01171875 0.21875 C-6.31522217 0.17685547 -5.61872559 0.13496094 -4.90112305 0.09179688 C-3.26903034 0.01299029 -1.63399421 0 0 0 Z " fill="#474747" transform="translate(82,140)"/>
<path d="M0 0 C5.94 0.33 11.88 0.66 18 1 C18 1.33 18 1.66 18 2 C12.39 2 6.78 2 1 2 C1 3.32 1 4.64 1 6 C7.27 6 13.54 6 20 6 C20 6.33 20 6.66 20 7 C13.73 7 7.46 7 1 7 C1 14.92 1 22.84 1 31 C0.67 31 0.34 31 0 31 C0 22.75 0 14.5 0 6 C-1.98 6 -3.96 6 -6 6 C-6 5.67 -6 5.34 -6 5 C-4.35 5 -2.7 5 -1 5 C-0.67 3.35 -0.34 1.7 0 0 Z " fill="#6D6C6D" transform="translate(61,139)"/>
<path d="M0 0 C1.79244141 0.01740234 1.79244141 0.01740234 3.62109375 0.03515625 C5.41740234 0.04869141 5.41740234 0.04869141 7.25 0.0625 C8.17683594 0.07410156 9.10367188 0.08570312 10.05859375 0.09765625 C9.74609375 1.97265625 9.74609375 1.97265625 9.05859375 4.09765625 C5.74488375 6.30679625 4.71399165 6.32247178 0.87109375 6.22265625 C-0.02996094 6.20460938 -0.93101562 6.1865625 -1.859375 6.16796875 C-2.54644531 6.14476563 -3.23351562 6.1215625 -3.94140625 6.09765625 C-3.98412725 4.4315372 -3.98204457 2.7638274 -3.94140625 1.09765625 C-2.94140625 0.09765625 -2.94140625 0.09765625 0 0 Z " fill="#D7D6D7" transform="translate(200.94140625,108.90234375)"/>
<path d="M0 0 C3.63 0 7.26 0 11 0 C11 1.98 11 3.96 11 6 C7.37 6 3.74 6 0 6 C0 4.02 0 2.04 0 0 Z " fill="#E2E1E2" transform="translate(82,117)"/>
<path d="M0 0 C0 2.64 0 5.28 0 8 C-0.33 7.34 -0.66 6.68 -1 6 C-1.99 6 -2.98 6 -4 6 C-4.2475 7.2375 -4.495 8.475 -4.75 9.75 C-6.04818352 15.64826858 -8.01439968 21.30344763 -10 27 C-10.66 26.34 -11.32 25.68 -12 25 C-10.93663604 21.57679291 -9.8458916 18.16291954 -8.75 14.75 C-8.44964844 13.78191406 -8.14929688 12.81382813 -7.83984375 11.81640625 C-7.53691406 10.88183594 -7.23398437 9.94726562 -6.921875 8.984375 C-6.64956055 8.12553711 -6.37724609 7.26669922 -6.09667969 6.38183594 C-5.02807739 4.06098019 -2.94547276 0 0 0 Z " fill="#504F50" transform="translate(381,76)"/>
<path d="M0 0 C3.96 0 7.92 0 12 0 C12.33 0.66 12.66 1.32 13 2 C12.67 2.66 12.34 3.32 12 4 C8.04 4 4.08 4 0 4 C0 2.68 0 1.36 0 0 Z " fill="#4B4B4B" transform="translate(82,124)"/>
<path d="M0 0 C0.93423645 3.01031744 1.04449911 3.86650268 0 7 C-0.99 7.33 -1.98 7.66 -3 8 C-5.1875 6.5625 -5.1875 6.5625 -7 5 C-6.625 3.0625 -6.625 3.0625 -6 1 C-4 0 -4 0 0 0 Z " fill="#414142" transform="translate(253,102)"/>
<path d="M0 0 C2.97 0.495 2.97 0.495 6 1 C6.02685938 3.14576637 6.04633088 5.29162645 6.0625 7.4375 C6.07410156 8.63246094 6.08570313 9.82742187 6.09765625 11.05859375 C6 14 6 14 5 15 C3.33382885 15.04063832 1.66611905 15.042721 0 15 C0.99 14.34 1.98 13.68 3 13 C3.58348752 10.3443272 3.58348752 10.3443272 3.6875 7.375 C3.75324219 6.37210937 3.81898438 5.36921875 3.88671875 4.3359375 C3.94279297 3.17964844 3.94279297 3.17964844 4 2 C2.68 2 1.36 2 0 2 C0 1.34 0 0.68 0 0 Z " fill="#4E4D4E" transform="translate(565,92)"/>
<path d="M0 0 C0.99 0.33 1.98 0.66 3 1 C3.02685938 3.14576637 3.04633088 5.29162645 3.0625 7.4375 C3.07410156 8.63246094 3.08570313 9.82742187 3.09765625 11.05859375 C3 14 3 14 2 15 C-0.67058851 15.14115161 -3.32432238 15.04247107 -6 15 C-5.67 14.34 -5.34 13.68 -5 13 C-3.35 13 -1.7 13 0 13 C0 8.71 0 4.42 0 0 Z " fill="#4F4D4E" transform="translate(568,111)"/>
<path d="M0 0 C2.97 0 5.94 0 9 0 C9 0.99 9 1.98 9 3 C6.03 3.66 3.06 4.32 0 5 C0 3.35 0 1.7 0 0 Z " fill="#DEDCDD" transform="translate(57,130)"/>
<path d="M0 0 C1.98 0 3.96 0 6 0 C6 2.31 6 4.62 6 7 C4.35 7.33 2.7 7.66 1 8 C1 4 1 4 3 2 C2.01 2 1.02 2 0 2 C0 1.34 0 0.68 0 0 Z " fill="#4A4949" transform="translate(197,115)"/>
<path d="M0 0 C0.33 0 0.66 0 1 0 C1 3.63 1 7.26 1 11 C0.34 9.68 -0.32 8.36 -1 7 C-2.32 7.33 -3.64 7.66 -5 8 C-4.67 6.68 -4.34 5.36 -4 4 C-4.66 3.67 -5.32 3.34 -6 3 C-4.02 2.67 -2.04 2.34 0 2 C0 1.34 0 0.68 0 0 Z " fill="#858585" transform="translate(547,122)"/>
<path d="M0 0 C0.66 1.32 1.32 2.64 2 4 C-1.33333333 7.33333333 -4.66666667 10.66666667 -8 14 C-8.66 13.67 -9.32 13.34 -10 13 C-9.52949219 12.48050781 -9.05898437 11.96101562 -8.57421875 11.42578125 C-5.32559823 7.78705723 -2.30339528 4.33580287 0 0 Z " fill="#4F4D4F" transform="translate(197,127)"/>
<path d="M0 0 C-3.44615385 5.78461538 -3.44615385 5.78461538 -6.25 6.875 C-6.8275 6.91625 -7.405 6.9575 -8 7 C-7.625 4.0625 -7.625 4.0625 -7 1 C-4.53721199 -0.231394 -2.7204945 -0.07159196 0 0 Z " fill="#595758" transform="translate(67,133)"/>
<path d="M0 0 C1.65 0 3.3 0 5 0 C5 0.66 5 1.32 5 2 C5.66 2.33 6.32 2.66 7 3 C6.34 3 5.68 3 5 3 C5 3.66 5 4.32 5 5 C3.35 5 1.7 5 0 5 C0 3.35 0 1.7 0 0 Z " fill="#EDECED" transform="translate(198,109)"/>
<path d="M0 0 C0.66 0 1.32 0 2 0 C2.66 2.64 3.32 5.28 4 8 C2.02 8.99 2.02 8.99 0 10 C0 6.7 0 3.4 0 0 Z " fill="#C3C1C2" transform="translate(62,54)"/>
<path d="M0 0 C0.66 0 1.32 0 2 0 C2 0.99 2 1.98 2 3 C2.99 3.33 3.98 3.66 5 4 C5 4.66 5 5.32 5 6 C4.01 6 3.02 6 2 6 C2 6.66 2 7.32 2 8 C1.34 8 0.68 8 0 8 C0 5.36 0 2.72 0 0 Z " fill="#5A5B59" transform="translate(27,109)"/>
<path d="M0 0 C1.65 0 3.3 0 5 0 C5 1.98 5 3.96 5 6 C2.525 5.01 2.525 5.01 0 4 C0 2.68 0 1.36 0 0 Z " fill="#E1E1E1" transform="translate(281,97)"/>
<path d="M0 0 C1.32 0.33 2.64 0.66 4 1 C3.67 1.99 3.34 2.98 3 4 C1.35 3.67 -0.3 3.34 -2 3 C-1.34 2.01 -0.68 1.02 0 0 Z " fill="#E1E0E0" transform="translate(100,72)"/>
<path d="" fill="#FFFFFF" transform="translate(0,0)"/>
</svg>
